# xmcd
#
# Track frame offsets: 
#        150
#        30451
#        47117
#        64217
#        84330
#        104478
#        127014
#        147954
#        164700
#        185088
#        201818
#        224371
#        246030
#        260949
#        282182
#        295782
#        314306
#        329610
#
# Disc length: 4760 seconds
#
# Revision: 0
# Processed by: cddbd v1.5.2PL0 Copyright (c) Steve Scherf et al.
# Submitted via: ExactAudioCopy v1.3
#
DISCID=24129612
DTITLE=Various Artist - Akella Presents - vol. 199 - Various Blues-Re
DTITLE=lax  CD2
DYEAR=2019
DGENRE=Blues
TTITLE0=The Jimmys - Saddest Man
TTITLE1=Kerry Kearney - No Way Back Blues
TTITLE2=Danny Worsnop - Tomorrow
TTITLE3=Kate Lush - Goodbye to the Rain
TTITLE4=Bishop Gunn - Riders
TTITLE5=Malacara and Wilson Band - Nothing Is Real
TTITLE6=Nick Harless - Complicated
TTITLE7=Stella Jones - Nelly Bly
TTITLE8=Don Felder - Sun
TTITLE9=Tullie Brae - Thank You Mom
TTITLE10=Hamish Anderson - Dark Eyes
TTITLE11=Shola Kaye - Rain in Your Life
TTITLE12=The Endangered Species - Widow's Son
TTITLE13=Charlie Vitamine - Just a Blues
TTITLE14=Pristine - Your Song
TTITLE15=Jimy Rev - Holes in My Ship
TTITLE16=J.J. Cale - Tell Daddy
TTITLE17=Kenny 'Blues Boss' Wayne - Georgia On My Mind
EXTD=
EXTT0=
EXTT1=
EXTT2=
EXTT3=
EXTT4=
EXTT5=
EXTT6=
EXTT7=
EXTT8=
EXTT9=
EXTT10=
EXTT11=
EXTT12=
EXTT13=
EXTT14=
EXTT15=
EXTT16=
EXTT17=
PLAYORDER=
